<?xml version="1.0" encoding="UTF-8"?>
<svg version="1.1" xmlns="http://www.w3.org/2000/svg" width="612" height="408">
<path d="M0 0 C0.65404312 -0.0049649 1.30808624 -0.00992981 1.98194885 -0.01504517 C4.14447078 -0.02964268 6.30691933 -0.03646515 8.46948242 -0.04199219 C9.97539776 -0.04774616 11.48131308 -0.05350386 12.98722839 -0.05926514 C16.14546042 -0.06976863 19.30366703 -0.07561538 22.46191406 -0.07910156 C26.50035809 -0.08458127 30.5384641 -0.10860056 34.57680225 -0.13707352 C37.68842028 -0.15573824 40.79995755 -0.16090755 43.91162682 -0.16243744 C45.39991794 -0.16545647 46.88820789 -0.17345964 48.37644386 -0.18662262 C50.46346024 -0.20376217 52.5496597 -0.2017841 54.63671875 -0.1953125 C56.41517937 -0.20078094 56.41517937 -0.20078094 58.22956848 -0.20635986 C62.95360068 0.32245807 66.22852103 2.09665162 69.85644531 5.10449219 C72.47081939 9.9300802 72.0628249 14.66634217 72.00854492 20.06738281 C72.01000015 21.22484009 72.01145538 22.38229736 72.01295471 23.5748291 C72.01129657 26.01914998 71.999745 28.4634814 71.97900391 30.90771484 C71.95005602 34.6475869 71.9583967 38.38604071 71.97143555 42.12597656 C71.96519781 44.50228553 71.95680659 46.87859003 71.94604492 49.25488281 C71.94898056 50.37270142 71.9519162 51.49052002 71.9549408 52.64221191 C71.94225662 53.68679565 71.92957245 54.73137939 71.91650391 55.80761719 C71.91110092 56.72297241 71.90569794 57.63832764 71.90013123 58.5814209 C71.42812756 61.72224143 70.3626702 63.5973489 68.51245117 66.16113281 C63.99669759 69.16076107 60.04861925 69.54626892 54.77026367 69.42675781 C53.27677155 69.42952932 51.78328123 69.43347205 50.28979492 69.43847656 C47.96354367 69.43014226 45.63866707 69.41115401 43.31274414 69.37060547 C32.75517548 68.92484466 32.75517548 68.92484466 23.62963867 73.52050781 C22.55461639 74.70231209 21.51158006 75.91450708 20.51245117 77.16113281 C19.51944135 78.16807447 18.52039329 79.16913852 17.51245117 80.16113281 C18.30287811 80.09048615 19.09330505 80.01983948 19.90768433 79.947052 C27.71272206 79.29190905 35.4399777 79.01368209 43.27026367 79.02832031 C44.42114471 79.02736359 45.57202576 79.02640686 46.75778198 79.02542114 C49.16265926 79.02474663 51.56753843 79.02654946 53.97241211 79.03076172 C57.66288261 79.03617008 61.35323414 79.03076683 65.04370117 79.02441406 C67.39005561 79.02507401 69.73640997 79.02635344 72.08276367 79.02832031 C73.18580841 79.02629608 74.28885315 79.02427185 75.42532349 79.02218628 C76.44423676 79.02533844 77.46315002 79.0284906 78.51293945 79.03173828 C79.40860626 79.03253387 80.30427307 79.03332947 81.2270813 79.03414917 C83.51245117 79.16113281 83.51245117 79.16113281 86.51245117 80.16113281 C90.00608774 80.55978429 93.4983904 80.92362479 97.00073242 81.23535156 C102.0401863 81.75973918 105.94721329 82.95097797 110.51245117 85.16113281 C110.01745117 87.14113281 110.01745117 87.14113281 109.51245117 89.16113281 C92.2969463 93.57594502 75.33243603 93.78575582 57.69238281 93.68261719 C53.74017522 93.65980855 49.78904477 93.6733524 45.83687401 93.69642639 C29.36715039 93.77746527 13.52539581 93.54885705 -2.48754883 89.16113281 C-2.48754883 87.51113281 -2.48754883 85.86113281 -2.48754883 84.16113281 C1.14668326 81.83522428 4.28333449 81.99847448 8.51245117 82.16113281 C8.51245117 77.87113281 8.51245117 73.58113281 8.51245117 69.16113281 C7.49924805 69.20753906 6.48604492 69.25394531 5.44213867 69.30175781 C4.09060585 69.33930039 2.73904089 69.37569788 1.38745117 69.41113281 C0.72229492 69.44464844 0.05713867 69.47816406 -0.62817383 69.51269531 C-5.77639275 69.61364078 -8.51266055 68.34576141 -12.48754883 65.16113281 C-15.28758363 62.36109801 -14.95544329 59.59866284 -15.12036133 55.83300781 C-15.15799591 55.08307556 -15.19563049 54.33314331 -15.23440552 53.56048584 C-15.61154064 45.06095132 -15.58415077 36.56776764 -15.41040039 28.06347656 C-15.37811474 26.27392916 -15.35721748 24.48414495 -15.34692383 22.69433594 C-15.33172198 20.06251579 -15.28450299 17.43301677 -15.22973633 14.80175781 C-15.23053192 14.00594299 -15.23132751 13.21012817 -15.23214722 12.39019775 C-15.1033882 8.1926879 -14.82789278 6.59073691 -12.12866211 3.18359375 C-8.04738786 0.05831404 -5.0085421 0.02890195 0 0 Z M32.51245117 18.16113281 C32.22112305 18.88816406 31.92979492 19.61519531 31.62963867 20.36425781 C29.3919561 25.85291317 27.03762567 31.20157992 24.32495117 36.47363281 C22.17577399 40.67806426 20.55770664 44.56200877 19.51245117 49.16113281 C21.46860253 48.9975787 21.46860253 48.9975787 23.51245117 48.16113281 C24.70135413 46.22951855 24.70135413 46.22951855 25.44995117 43.78613281 C26.83633492 39.95993198 28.3402396 36.2809996 30.07495117 32.59863281 C32.25840631 27.86781335 33.96353362 23.13397339 35.51245117 18.16113281 C34.52245117 18.16113281 33.53245117 18.16113281 32.51245117 18.16113281 Z M13.51245117 22.16113281 C11.7611546 23.26324186 10.01146654 24.36790713 8.26245117 25.47363281 C6.8006543 26.39595703 6.8006543 26.39595703 5.30932617 27.33691406 C1.78393388 29.58303949 1.78393388 29.58303949 -1.48754883 32.16113281 C-1.48754883 33.15113281 -1.48754883 34.14113281 -1.48754883 35.16113281 C-0.09391628 36.50618676 -0.09391628 36.50618676 1.79370117 37.64160156 C2.80883789 38.30385742 2.80883789 38.30385742 3.84448242 38.97949219 C4.55991211 39.43130859 5.2753418 39.883125 6.01245117 40.34863281 C7.0855957 41.04375977 7.0855957 41.04375977 8.18041992 41.75292969 C9.95173239 42.89837842 11.73134244 44.03097692 13.51245117 45.16113281 C13.84245117 44.17113281 14.17245117 43.18113281 14.51245117 42.16113281 C10.48897529 38.69141904 10.48897529 38.69141904 5.51245117 37.16113281 C5.51245117 36.50113281 5.51245117 35.84113281 5.51245117 35.16113281 C4.85245117 34.50113281 4.19245117 33.84113281 3.51245117 33.16113281 C7.14245117 30.52113281 10.77245117 27.88113281 14.51245117 25.16113281 C14.18245117 24.17113281 13.85245117 23.18113281 13.51245117 22.16113281 Z M41.51245117 23.16113281 C41.51245117 24.15113281 41.51245117 25.14113281 41.51245117 26.16113281 C43.71238332 27.75525508 43.71238332 27.75525508 46.44995117 29.16113281 C51.40438942 31.83694756 51.40438942 31.83694756 52.51245117 35.16113281 C51.99682617 35.40863281 51.48120117 35.65613281 50.94995117 35.91113281 C47.74060966 37.55694897 44.63659454 39.35874241 41.51245117 41.16113281 C41.84245117 42.48113281 42.17245117 43.80113281 42.51245117 45.16113281 C43.17245117 44.83113281 43.83245117 44.50113281 44.51245117 44.16113281 C44.51245117 43.50113281 44.51245117 42.84113281 44.51245117 42.16113281 C45.08479492 42.05414063 45.65713867 41.94714844 46.24682617 41.83691406 C48.84934554 41.06064535 50.5740864 39.94938111 52.76245117 38.34863281 C53.46885742 37.8471875 54.17526367 37.34574219 54.90307617 36.82910156 C56.97535375 35.06767738 56.97535375 35.06767738 56.51245117 31.16113281 C55.46057617 30.58363281 54.40870117 30.00613281 53.32495117 29.41113281 C50.89617752 28.03728105 48.94468171 26.69659416 46.76245117 24.91113281 C44.59284816 22.85416251 44.59284816 22.85416251 41.51245117 23.16113281 Z " fill="#4E5FD4" transform="translate(253.487548828125,161.8388671875)"/>
<path d="M0 0 C0.66 0 1.32 0 2 0 C2.556875 1.0828125 2.556875 1.0828125 3.125 2.1875 C5.38548314 5.57822471 7.71240704 6.81480886 11.2578125 8.69140625 C13 10 13 10 13.7421875 12.15234375 C13.82726562 12.76207031 13.91234375 13.37179688 14 14 C14.66 14 15.32 14 16 14 C16.495 14.99 16.495 14.99 17 16 C20.54040897 17.18013632 23.66212019 17.05123238 27.3359375 16.95703125 C28.80727815 16.93464043 30.27863329 16.91318531 31.75 16.89257812 C34.06322471 16.85551351 36.37570849 16.81248183 38.68847656 16.75317383 C40.92523807 16.69851971 43.16117354 16.66954728 45.3984375 16.64453125 C46.08505463 16.62074905 46.77167175 16.59696686 47.47909546 16.57246399 C50.91020076 16.55384929 52.88716428 16.9323121 55.85009766 18.7097168 C60.62633407 23.7978242 60.31945292 29.04765331 60.3359375 35.68359375 C60.3459227 37.08328148 60.3459227 37.08328148 60.35610962 38.51124573 C60.36621379 40.48054031 60.37092733 42.44986898 60.37060547 44.41918945 C60.37498022 47.42391558 60.41132768 50.42717397 60.44921875 53.43164062 C60.45508714 55.34895333 60.45905639 57.26627299 60.4609375 59.18359375 C60.47530853 60.07751328 60.48967957 60.9714328 60.50448608 61.8924408 C60.46422183 67.41717686 59.73874739 70.65024944 56 75 C51.0754853 78.2830098 45.82305673 77.11530805 40 77 C40 82.28 40 87.56 40 93 C38.02 92.01 38.02 92.01 36 91 C36 90.34 36 89.68 36 89 C35.4225 88.731875 34.845 88.46375 34.25 88.1875 C31.94449957 86.97070811 29.97943808 85.69666121 28 84 C28 83.34 28 82.68 28 82 C27.38125 81.71125 26.7625 81.4225 26.125 81.125 C24 80 24 80 22 78 C18.87803664 77.53513282 18.87803664 77.53513282 15.375 77.375 C14.18648438 77.30023438 12.99796875 77.22546875 11.7734375 77.1484375 C10.40058594 77.07496094 10.40058594 77.07496094 9 77 C9.00523682 75.84064941 9.01047363 74.68129883 9.01586914 73.48681641 C9.03410608 69.14437649 9.0454997 64.80193988 9.05493164 60.45947266 C9.05992942 58.58772205 9.06672988 56.71597529 9.07543945 54.84423828 C9.08770621 52.13833665 9.093274 49.43248708 9.09765625 46.7265625 C9.10281754 45.90322418 9.10797882 45.07988586 9.11329651 44.2315979 C9.43136343 31.73882846 9.43136343 31.73882846 4 21 C0.1026675 18.14461694 -2.60049375 17.63886958 -7.39453125 17.70703125 C-8.59658203 17.71669922 -9.79863281 17.72636719 -11.03710938 17.73632812 C-12.90592773 17.7740332 -12.90592773 17.7740332 -14.8125 17.8125 C-16.07771484 17.82603516 -17.34292969 17.83957031 -18.64648438 17.85351562 C-21.76475643 17.88881682 -24.88216042 17.93813181 -28 18 C-27.19201385 14.17606554 -26.08653702 12.50259758 -23 10 C-18.5568463 7.9900019 -14.14830704 7.62423483 -9.34765625 7.21875 C-6.85065324 6.98608416 -4.44206093 6.56981422 -2 6 C-1.34 4.02 -0.68 2.04 0 0 Z M15 38 C15 38.66 15 39.32 15 40 C24.57 40 34.14 40 44 40 C44.33 39.34 44.66 38.68 45 38 C35.1 38 25.2 38 15 38 Z M15 50 C15.33 50.66 15.66 51.32 16 52 C22.93 52 29.86 52 37 52 C37.33 51.34 37.66 50.68 38 50 C30.41 50 22.82 50 15 50 Z " fill="#2ABD95" transform="translate(317,143)"/>
<path d="M0 0 C5.28 0 10.56 0 16 0 C16.33 4.95 16.66 9.9 17 15 C18.65 14.01 20.3 13.02 22 12 C24.81152344 11.49267578 24.81152344 11.49267578 28.109375 11.3203125 C28.73978699 11.28729034 29.37019897 11.25426819 30.01971436 11.22024536 C40.20542076 10.76458067 50.41762283 10.85165145 60.61083984 10.86962891 C64.28356945 10.87504955 67.95618007 10.86962447 71.62890625 10.86328125 C73.9661461 10.86394102 76.30338588 10.86522009 78.640625 10.8671875 C79.73739563 10.86516327 80.83416626 10.86313904 81.96417236 10.86105347 C83.48285919 10.86578171 83.48285919 10.86578171 85.03222656 10.87060547 C85.92186096 10.87140106 86.81149536 10.87219666 87.72808838 10.87301636 C90 11 90 11 93 12 C96.49363657 12.39865148 99.98593923 12.76249197 103.48828125 13.07421875 C108.52773513 13.59860637 112.43476212 14.78984515 117 17 C116.67 18.32 116.34 19.64 116 21 C98.78449512 25.4148122 81.81998486 25.624623 64.17993164 25.52148438 C60.22772405 25.49867574 56.2765936 25.51221958 52.32442284 25.53529358 C35.85469921 25.61633246 20.01294464 25.38772424 4 21 C4 19.35 4 17.7 4 16 C7.63423209 13.67409146 10.77088331 13.83734167 15 14 C15 9.71 15 5.42 15 1 C10.05 1 5.1 1 0 1 C0 0.67 0 0.34 0 0 Z " fill="#EAEEF6" transform="translate(247,230)"/>
<path d="M0 0 C0.66 0 1.32 0 2 0 C2.556875 1.0828125 2.556875 1.0828125 3.125 2.1875 C5.38548314 5.57822471 7.71240704 6.81480886 11.2578125 8.69140625 C13 10 13 10 13.7421875 12.15234375 C13.82726562 12.76207031 13.91234375 13.37179688 14 14 C14.66 14 15.32 14 16 14 C15.67 14.66 15.34 15.32 15 16 C14.01 16.33 13.02 16.66 12 17 C12.61277612 19.96175123 13.25372522 21.38058783 15 24 C14.75 25.8125 14.75 25.8125 14 28 C13.4740625 29.60875 13.4740625 29.60875 12.9375 31.25 C12.628125 32.1575 12.31875 33.065 12 34 C15.56378111 36.1984364 18.59397806 36.30510469 22.734375 36.4140625 C24.02988281 36.45273438 25.32539063 36.49140625 26.66015625 36.53125 C28.02343284 36.56270267 29.38671418 36.59395007 30.75 36.625 C32.12893028 36.66320469 33.50783734 36.70225787 34.88671875 36.7421875 C38.25767718 36.83648004 41.62862978 36.9220822 45 37 C45 38.32 45 39.64 45 41 C28.665 41.495 28.665 41.495 12 42 C12 43.98 12 45.96 12 48 C24.87 48.495 24.87 48.495 38 49 C38 49.33 38 49.66 38 50 C30.41 50.33 22.82 50.66 15 51 C14.505 51.99 14.505 51.99 14 53 C12.68 53 11.36 53 10 53 C10.495 64.88 10.495 64.88 11 77 C10.34 77 9.68 77 9 77 C9.00523682 75.84064941 9.01047363 74.68129883 9.01586914 73.48681641 C9.03410608 69.14437649 9.0454997 64.80193988 9.05493164 60.45947266 C9.05992942 58.58772205 9.06672988 56.71597529 9.07543945 54.84423828 C9.08770621 52.13833665 9.093274 49.43248708 9.09765625 46.7265625 C9.10281754 45.90322418 9.10797882 45.07988586 9.11329651 44.2315979 C9.43136343 31.73882846 9.43136343 31.73882846 4 21 C0.1026675 18.14461694 -2.60049375 17.63886958 -7.39453125 17.70703125 C-8.59658203 17.71669922 -9.79863281 17.72636719 -11.03710938 17.73632812 C-12.90592773 17.7740332 -12.90592773 17.7740332 -14.8125 17.8125 C-16.07771484 17.82603516 -17.34292969 17.83957031 -18.64648438 17.85351562 C-21.76475643 17.88881682 -24.88216042 17.93813181 -28 18 C-27.19201385 14.17606554 -26.08653702 12.50259758 -23 10 C-18.5568463 7.9900019 -14.14830704 7.62423483 -9.34765625 7.21875 C-6.85065324 6.98608416 -4.44206093 6.56981422 -2 6 C-1.34 4.02 -0.68 2.04 0 0 Z M15 38 C15 38.66 15 39.32 15 40 C24.57 40 34.14 40 44 40 C44.33 39.34 44.66 38.68 45 38 C35.1 38 25.2 38 15 38 Z " fill="#7AD5C7" transform="translate(317,143)"/>
<path d="M0 0 C0.6544812 -0.00525696 1.3089624 -0.01051392 1.98327637 -0.01593018 C4.12972439 -0.02904897 6.27542047 -0.02042177 8.421875 -0.01025391 C9.92350404 -0.01227699 11.42513212 -0.01519039 12.92675781 -0.01895142 C16.06715286 -0.02336374 19.20729115 -0.01697918 22.34765625 -0.00292969 C26.36253296 0.01416182 30.37680793 0.00431474 34.3916626 -0.01364708 C37.49044282 -0.02451462 40.58908161 -0.02102503 43.68786621 -0.0132637 C45.16776603 -0.01126989 46.64767891 -0.01369208 48.12756348 -0.02070236 C50.19996909 -0.02836626 52.27141539 -0.01664551 54.34375 0 C56.1086377 0.00358017 56.1086377 0.00358017 57.90917969 0.00723267 C62.61274042 0.55641843 65.89681746 2.33563089 69.51806641 5.32495117 C72.14066448 10.18260368 71.70205623 14.96858846 71.6328125 20.39990234 C71.63189606 21.56447464 71.63097961 22.72904694 71.6300354 23.9289093 C71.62400149 26.38583462 71.60826198 28.84275265 71.58349609 31.29956055 C71.54690865 35.07221368 71.54247734 38.84388693 71.54296875 42.61669922 C71.53314073 45.00277546 71.52148511 47.38884503 71.5078125 49.77490234 C71.50558685 50.9082048 71.50336121 52.04150726 71.50106812 53.20915222 C71.48830841 54.25396255 71.47554871 55.29877289 71.46240234 56.37524414 C71.45096695 57.75826973 71.45096695 57.75826973 71.43930054 59.16923523 C71.171875 61.38818359 71.171875 61.38818359 69.171875 63.38818359 C68.05177924 59.80795626 68.07248618 56.49503878 68.109375 52.75927734 C68.11710937 51.47730469 68.12484375 50.19533203 68.1328125 48.87451172 C68.14524984 47.52489684 68.15827698 46.17528728 68.171875 44.82568359 C68.19847664 42.17850347 68.21838729 39.53157557 68.234375 36.88427734 C68.24597656 35.71050537 68.25757813 34.5367334 68.26953125 33.32739258 C68.30936876 30.32641417 68.30936876 30.32641417 67.171875 27.38818359 C68.161875 25.90318359 68.161875 25.90318359 69.171875 24.38818359 C68.511875 24.38818359 67.851875 24.38818359 67.171875 24.38818359 C65.48018627 19.31311739 65.85340709 14.47370267 67.171875 9.38818359 C66.676875 7.90318359 66.676875 7.90318359 66.171875 6.38818359 C63.861875 6.38818359 61.551875 6.38818359 59.171875 6.38818359 C58.676875 4.90318359 58.676875 4.90318359 58.171875 3.38818359 C57.181875 3.71818359 56.191875 4.04818359 55.171875 4.38818359 C53.30712891 4.40991211 53.30712891 4.40991211 51.1484375 4.26708984 C50.30974121 4.21842773 49.47104492 4.16976562 48.60693359 4.11962891 C47.67961426 4.06387695 46.75229492 4.008125 45.796875 3.95068359 C35.55135918 3.43256628 25.31155799 3.21281896 15.05438232 3.15499878 C13.38705953 3.14381782 11.71976411 3.12718365 10.05255127 3.10501099 C7.68329318 3.07497963 5.31473968 3.06495568 2.9453125 3.06005859 C2.23469666 3.04774704 1.52408081 3.03543549 0.79193115 3.02275085 C-4.78762483 3.04756405 -7.92847934 4.48853793 -11.828125 8.38818359 C-12.818125 8.38818359 -13.808125 8.38818359 -14.828125 8.38818359 C-13.897133 4.9435132 -13.25486866 3.65196481 -10.16894531 1.74447632 C-6.50952492 0.25883962 -3.93555926 0.00798349 0 0 Z M67.171875 19.38818359 C68.171875 21.38818359 68.171875 21.38818359 68.171875 21.38818359 Z " fill="#6C9CD7" transform="translate(253.828125,161.61181640625)"/>
<path d="M0 0 C1.81914128 2.93083872 2.00904416 5.39180272 2.125 8.8125 C0.96218318 12.05614693 0.07329336 14.09310504 -2.6875 16.1875 C-6.75622316 17.34999233 -9.7541282 17.32198718 -13.625 15.5625 C-16.04380375 13.6812082 -16.96291905 12.71457573 -17.875 9.8125 C-18.23977797 6.38358705 -18.0588178 4.2618324 -16.75 1.0625 C-12.04211428 -4.58696287 -5.83410542 -3.69493343 0 0 Z " fill="#FBBE16" transform="translate(348.875,142.1875)"/>
<path d="M0 0 C1.66611905 -0.042721 3.33382885 -0.04063832 5 0 C5.33 0.33 5.66 0.66 6 1 C7.69141656 0.91036938 9.37959602 0.75422324 11.0625 0.5625 C11.98160156 0.46066406 12.90070313 0.35882813 13.84765625 0.25390625 C14.91306641 0.12822266 14.91306641 0.12822266 16 0 C16.66 2.97 17.32 5.94 18 9 C17.01 9 16.02 9 15 9 C15 9.99 15 10.98 15 12 C15.70125 12.2475 16.4025 12.495 17.125 12.75 C20.41286474 14.17950641 23.15545943 15.81698049 26 18 C26 18.99 26 19.98 26 21 C23.1875 23.25 23.1875 23.25 20 25 C19.01 24.67 18.02 24.34 17 24 C17 23.01 17 22.02 17 21 C17.99 21 18.98 21 20 21 C19.67 20.01 19.34 19.02 19 18 C19.33 17.67 19.66 17.34 20 17 C17.23394361 15.28322447 17.23394361 15.28322447 14 14 C11.64539322 14.67424167 11.64539322 14.67424167 10 16 C10 16.66 10 17.32 10 18 C8.35 18 6.7 18 5 18 C5 18.66 5 19.32 5 20 C4.34 20 3.68 20 3 20 C3.76242216 16.38944909 5.12473374 13.14165375 6.5625 9.75 C7.01753906 8.67234375 7.47257812 7.5946875 7.94140625 6.484375 C8.29074219 5.66453125 8.64007813 4.8446875 9 4 C8.01 4 7.02 4 6 4 C5.87625 4.721875 5.7525 5.44375 5.625 6.1875 C5.0095069 8.95721894 4.11555626 11.3970354 3 14 C1.9375 12.1875 1.9375 12.1875 1 10 C1.33 9.01 1.66 8.02 2 7 C1.39421747 4.98072489 0.73080266 2.97746603 0 1 C0 0.67 0 0.34 0 0 Z " fill="#6072D3" transform="translate(280,176)"/>
<path d="M0 0 C0.66 0 1.32 0 2 0 C2.33 1.65 2.66 3.3 3 5 C3.598125 5.103125 4.19625 5.20625 4.8125 5.3125 C7.28243264 6.08876455 8.32251235 7.07088921 10 9 C9.67 9.99 9.34 10.98 9 12 C9.66 12 10.32 12 11 12 C11 16 11 20 11 24 C9.58461283 24.33872513 8.16762037 24.67074624 6.75 25 C5.96109375 25.185625 5.1721875 25.37125 4.359375 25.5625 C2 26 2 26 -2 26 C-4.00401011 26.30830925 -6.00511766 26.63729412 -8 27 C-8 24.36 -8 21.72 -8 19 C-6.68 19.33 -5.36 19.66 -4 20 C-4.99 20.33 -5.98 20.66 -7 21 C-6.67 21.99 -6.34 22.98 -6 24 C-5.34 24 -4.68 24 -4 24 C-4 23.34 -4 22.68 -4 22 C-2.36816893 20.94410931 -0.69207001 19.9563874 1 19 C5.31892999 16.66349214 5.31892999 16.66349214 7.875 12.75 C7.91625 12.1725 7.9575 11.595 8 11 C7.42765625 10.89816406 6.8553125 10.79632813 6.265625 10.69140625 C3.59724354 9.87708984 1.94034312 8.65326878 -0.25 6.9375 C-0.95640625 6.38964844 -1.6628125 5.84179688 -2.390625 5.27734375 C-3.18726563 4.64505859 -3.18726563 4.64505859 -4 4 C-2.68 3.67 -1.36 3.34 0 3 C0 2.01 0 1.02 0 0 Z " fill="#3874DD" transform="translate(302,182)"/>
<path d="M0 0 C0.66411896 -0.00043808 1.32823792 -0.00087616 2.01248169 -0.00132751 C4.18782896 0.00074742 6.36238656 0.02401532 8.53759766 0.04760742 C10.05359476 0.05320803 11.56959732 0.05747593 13.08560181 0.06047058 C17.06084384 0.07188289 21.03575303 0.10131841 25.01086426 0.13458252 C29.07311502 0.16536176 33.13541996 0.17899264 37.19775391 0.1940918 C45.15754146 0.22619204 53.11705931 0.27734405 61.07666016 0.34057617 C61.07666016 0.67057617 61.07666016 1.00057617 61.07666016 1.34057617 C59.86550537 1.3781604 59.86550537 1.3781604 58.62988281 1.41650391 C54.98697099 1.53223104 51.3443329 1.65506253 47.70166016 1.77807617 C45.79513672 1.83705078 45.79513672 1.83705078 43.85009766 1.8972168 C42.63837891 1.93911133 41.42666016 1.98100586 40.17822266 2.02416992 C38.49720459 2.07915649 38.49720459 2.07915649 36.78222656 2.13525391 C34.10953244 2.1665363 34.10953244 2.1665363 32.07666016 3.34057617 C29.3632334 3.39104288 26.67524612 3.38321361 23.96337891 3.33276367 C22.30648406 3.3152409 20.64958261 3.29833325 18.99267578 3.28198242 C16.37896519 3.25106255 13.76558358 3.21560145 11.15209961 3.16918945 C8.63081814 3.12674283 6.10992092 3.10337535 3.58837891 3.08276367 C2.81112961 3.06414276 2.03388031 3.04552185 1.233078 3.02633667 C-3.37036238 3.00467045 -6.25143699 3.51801233 -9.92333984 6.34057617 C-10.58333984 7.00057617 -11.24333984 7.66057617 -11.92333984 8.34057617 C-12.91333984 8.34057617 -13.90333984 8.34057617 -14.92333984 8.34057617 C-13.99344397 4.89996143 -13.34851388 3.60445344 -10.27011108 1.69389343 C-6.56887871 0.19724448 -3.97906021 -0.02218807 0 0 Z " fill="#9596EA" transform="translate(253.92333984375,161.659423828125)"/>
<path d="M0 0 C0.99 0 1.98 0 3 0 C3.33 0.66 3.66 1.32 4 2 C6.01669827 3.13350534 6.01669827 3.13350534 8 4 C7.67 5.32 7.34 6.64 7 8 C6.01 8 5.02 8 4 8 C4.33 9.32 4.66 10.64 5 12 C3.68 12 2.36 12 1 12 C1 14.64 1 17.28 1 20 C-1.31 19.67 -3.62 19.34 -6 19 C-6 11.625 -6 11.625 -5 8 C-5.99 7.67 -6.98 7.34 -8 7 C-8 6.34 -8 5.68 -8 5 C-6.35 5 -4.7 5 -3 5 C-3 4.34 -3 3.68 -3 3 C-2.34 3 -1.68 3 -1 3 C-0.67 2.01 -0.34 1.02 0 0 Z " fill="#4564D3" transform="translate(293,189)"/>
<path d="M0 0 C1.81914128 2.93083872 2.00904416 5.39180272 2.125 8.8125 C0.96218318 12.05614693 0.07329336 14.09310504 -2.6875 16.1875 C-6.75622316 17.34999233 -9.7541282 17.32198718 -13.625 15.5625 C-16.04380375 13.6812082 -16.96291905 12.71457573 -17.875 9.8125 C-18.23977797 6.38358705 -18.0588178 4.2618324 -16.75 1.0625 C-12.04211428 -4.58696287 -5.83410542 -3.69493343 0 0 Z M-12.625 0.8125 C-13.6975 1.4725 -14.77 2.1325 -15.875 2.8125 C-16.14432521 7.46302872 -16.14432521 7.46302872 -14.875 11.8125 C-10.585 11.8125 -6.295 11.8125 -1.875 11.8125 C-2.205 10.4925 -2.535 9.1725 -2.875 7.8125 C-1.885 7.8125 -0.895 7.8125 0.125 7.8125 C0.29187448 5.39604218 0.29187448 5.39604218 0.125 2.8125 C-0.535 2.1525 -1.195 1.4925 -1.875 0.8125 C-2.865 0.8125 -3.855 0.8125 -4.875 0.8125 C-4.875 0.1525 -4.875 -0.5075 -4.875 -1.1875 C-8.7414136 -1.1875 -9.56519314 -1.07045807 -12.625 0.8125 Z " fill="#EF941F" transform="translate(348.875,142.1875)"/>
<path d="M0 0 C1.06669922 -0.02900391 2.13339844 -0.05800781 3.23242188 -0.08789062 C10.96757414 -0.15077804 10.96757414 -0.15077804 14.92578125 2.01953125 C19.32975297 7.37177017 19.08259583 12.57987832 19.0078125 19.20703125 C19.0049826 20.15438644 19.00215271 21.10174164 18.99923706 22.07780457 C18.98807187 25.09366666 18.96297389 28.10922816 18.9375 31.125 C18.92746547 33.17382383 18.91834045 35.22265232 18.91015625 37.27148438 C18.88814449 42.28527148 18.85363971 47.29883483 18.8125 52.3125 C18.4825 52.3125 18.1525 52.3125 17.8125 52.3125 C17.3175 31.5225 17.3175 31.5225 16.8125 10.3125 C16.1525 9.9825 15.4925 9.6525 14.8125 9.3125 C14.8125 8.6525 14.8125 7.9925 14.8125 7.3125 C14.07 7.23 13.3275 7.1475 12.5625 7.0625 C9.8125 6.3125 9.8125 6.3125 8.03125 4.3125 C5.16339343 1.72738985 3.37136856 1.72810298 -0.4375 1.5625 C-1.51515625 1.50578125 -2.5928125 1.4490625 -3.703125 1.390625 C-4.52296875 1.36484375 -5.3428125 1.3390625 -6.1875 1.3125 C-6.5175 1.9725 -6.8475 2.6325 -7.1875 3.3125 C-11.4775 2.9825 -15.7675 2.6525 -20.1875 2.3125 C-20.1875 1.9825 -20.1875 1.6525 -20.1875 1.3125 C-13.44805503 0.31255823 -6.80877378 0.0623895 0 0 Z " fill="#A9ECDA" transform="translate(358.1875,159.6875)"/>
<path d="M0 0 C1.98 0 3.96 0 6 0 C6 0.66 6 1.32 6 2 C6.66 2.33 7.32 2.66 8 3 C7.67 3.66 7.34 4.32 7 5 C10.43230448 4.73606499 10.43230448 4.73606499 14 4 C14.66 3.01 15.32 2.02 16 1 C18.31 1.33 20.62 1.66 23 2 C23 2.66 23 3.32 23 4 C23.66 4.33 24.32 4.66 25 5 C25 5.66 25 6.32 25 7 C24.34 7 23.68 7 23 7 C23.33 7.7425 23.66 8.485 24 9.25 C25 12 25 12 25 16 C25.99 16 26.98 16 28 16 C26.48601545 19.78496138 25.9855604 20.0072198 22 22 C22 16.72 22 11.44 22 6 C20.10314453 6.03480469 20.10314453 6.03480469 18.16796875 6.0703125 C16.5078184 6.08907126 14.84766167 6.10727135 13.1875 6.125 C12.35412109 6.14175781 11.52074219 6.15851563 10.66210938 6.17578125 C9.85966797 6.18222656 9.05722656 6.18867188 8.23046875 6.1953125 C7.12288208 6.21102295 7.12288208 6.21102295 5.99291992 6.22705078 C4 6 4 6 1 4 C0.3125 1.875 0.3125 1.875 0 0 Z " fill="#4138AD" transform="translate(241,224)"/>
<path d="M0 0 C0.928125 0.45375 1.85625 0.9075 2.8125 1.375 C8.20663359 3.88843671 14.14606759 3.74471573 20 4 C20 4.99 20 5.98 20 7 C19.34 7 18.68 7 18 7 C17.67 7.99 17.34 8.98 17 10 C15.68 10 14.36 10 13 10 C12.34 9.34 11.68 8.68 11 8 C9.12676562 8.27833156 9.12676562 8.27833156 7.125 9 C3.29029957 10.10160485 3.29029957 10.10160485 0.5 9.125 C0.005 8.75375 -0.49 8.3825 -1 8 C-1 7.34 -1 6.68 -1 6 C-1.66 5.67 -2.32 5.34 -3 5 C-2.625 3.0625 -2.625 3.0625 -2 1 C-1.34 0.67 -0.68 0.34 0 0 Z " fill="#4BD5A0" transform="translate(331,158)"/>
<path d="M0 0 C0.66 0 1.32 0 2 0 C2.33 1.98 2.66 3.96 3 6 C4.98 6.66 6.96 7.32 9 8 C9 8.99 9 9.98 9 11 C8.236875 11.226875 7.47375 11.45375 6.6875 11.6875 C3.45263699 13.26731682 2.58358642 14.83282717 1 18 C-3 13.25 -3 13.25 -3 11 C-4.65 10.67 -6.3 10.34 -8 10 C-7.67 9.01 -7.34 8.02 -7 7 C-5.35 6.67 -3.7 6.34 -2 6 C-1.34 4.02 -0.68 2.04 0 0 Z " fill="#9568CD" transform="translate(293,127)"/>
<path d="M0 0 C1.65 0.33 3.3 0.66 5 1 C5.33 1.99 5.66 2.98 6 4 C13.92 4 21.84 4 30 4 C30.33 2.68 30.66 1.36 31 0 C31 0.66 31 1.32 31 2 C33.31 2 35.62 2 38 2 C38 2.99 38 3.98 38 5 C34.77396455 6.61301773 31.25289962 6.12053599 27.7109375 6.09765625 C26.48330185 6.09553383 26.48330185 6.09553383 25.23086548 6.09336853 C22.61220675 6.0877629 19.99363296 6.07520948 17.375 6.0625 C15.60156373 6.05748572 13.82812613 6.05292269 12.0546875 6.04882812 C7.70309218 6.03779164 3.3515605 6.02052325 -1 6 C-1 2 -1 2 0 0 Z " fill="#295AB0" transform="translate(282,224)"/>
<path d="M0 0 C0.66 0 1.32 0 2 0 C2 0.99 2 1.98 2 3 C1.34 3 0.68 3 0 3 C0 4.98 0 6.96 0 9 C12.87 9.495 12.87 9.495 26 10 C26 10.33 26 10.66 26 11 C18.41 11.33 10.82 11.66 3 12 C2.67 12.66 2.34 13.32 2 14 C0.68 14 -0.64 14 -2 14 C-1.67 21.92 -1.34 29.84 -1 38 C-1.66 38 -2.32 38 -3 38 C-3 26.12 -3 14.24 -3 2 C-2.01 2 -1.02 2 0 2 C0 1.34 0 0.68 0 0 Z " fill="#99DDDA" transform="translate(329,182)"/>
<path d="M0 0 C0.33 0.66 0.66 1.32 1 2 C0.26394531 2.10957031 -0.47210938 2.21914062 -1.23046875 2.33203125 C-6.47954977 3.18492024 -10.54874923 3.9397651 -15 7 C-15.99 7 -16.98 7 -18 7 C-18 7.66 -18 8.32 -18 9 C-9.75 9 -1.5 9 7 9 C6.67 9.66 6.34 10.32 6 11 C-2.91 11 -11.82 11 -21 11 C-19.93021699 6.72086797 -19.32248055 5.69390315 -16 3 C-10.8917964 0.68914599 -5.52531582 0.41494467 0 0 Z " fill="#A6DFDA" transform="translate(310,150)"/>
<path d="M0 0 C0.99 0 1.98 0 3 0 C3 0.66 3 1.32 3 2 C4.32 2.66 5.64 3.32 7 4 C5.25 7.875 5.25 7.875 3 9 C0.59161322 9.08639869 -1.78733881 9.11567764 -4.1953125 9.09765625 C-4.90275604 9.0962413 -5.61019958 9.09482635 -6.33908081 9.09336853 C-8.60109669 9.087766 -10.86301398 9.07521318 -13.125 9.0625 C-14.65755065 9.05748532 -16.19010286 9.05292236 -17.72265625 9.04882812 C-21.48180888 9.03779577 -25.24088772 9.02052952 -29 9 C-29 8.67 -29 8.34 -29 8 C-13.655 7.505 -13.655 7.505 2 7 C2 6.34 2 5.68 2 5 C-7.57 4.67 -17.14 4.34 -27 4 C-27 3.67 -27 3.34 -27 3 C-18.09 2.67 -9.18 2.34 0 2 C0 1.34 0 0.68 0 0 Z " fill="#48B895" transform="translate(360,176)"/>
<path d="M0 0 C6.76923077 3.44615385 6.76923077 3.44615385 7.9375 6.25 C7.958125 6.8275 7.97875 7.405 8 8 C8.66 8 9.32 8 10 8 C9.67 8.66 9.34 9.32 9 10 C6.03 9.505 6.03 9.505 3 9 C3 9.66 3 10.32 3 11 C1.02 11 -0.96 11 -3 11 C-3.33 8.69 -3.66 6.38 -4 4 C-2.68 3.67 -1.36 3.34 0 3 C0 2.01 0 1.02 0 0 Z " fill="#A1DFD1" transform="translate(323,149)"/>
<path d="M0 0 C3.97915159 -0.02886984 7.95827653 -0.04675406 11.9375 -0.0625 C13.07380859 -0.07087891 14.21011719 -0.07925781 15.38085938 -0.08789062 C16.46044922 -0.09111328 17.54003906 -0.09433594 18.65234375 -0.09765625 C20.15269165 -0.10551147 20.15269165 -0.10551147 21.68334961 -0.11352539 C24 0 24 0 25 1 C25 2.65 25 4.3 25 6 C16.42 6 7.84 6 -1 6 C-1.33 5.01 -1.66 4.02 -2 3 C5.92 3 13.84 3 22 3 C22.33 2.34 22.66 1.68 23 1 C15.41 1 7.82 1 0 1 C0 0.67 0 0.34 0 0 Z " fill="#48B199" transform="translate(332,191)"/>
<path d="M0 0 C0.33 0 0.66 0 1 0 C1 8.58 1 17.16 1 26 C0.01 26 -0.98 26 -2 26 C-2 27.32 -2 28.64 -2 30 C-2.66 30 -3.32 30 -4 30 C-4 30.66 -4 31.32 -4 32 C-4.99 31.67 -5.98 31.34 -7 31 C-7 29.68 -7 28.36 -7 27 C-6.34 26.67 -5.68 26.34 -5 26 C-7.31 25.34 -9.62 24.68 -12 24 C-11.67 23.34 -11.34 22.68 -11 22 C-7.7 22 -4.4 22 -1 22 C-0.67 14.74 -0.34 7.48 0 0 Z " fill="#15A386" transform="translate(375,186)"/>
<path d="M0 0 C0.66 0 1.32 0 2 0 C1.99214478 1.01368652 1.99214478 1.01368652 1.98413086 2.04785156 C1.96331993 5.11522489 1.95032671 8.18258333 1.9375 11.25 C1.92912109 12.31347656 1.92074219 13.37695312 1.91210938 14.47265625 C1.90888672 15.49746094 1.90566406 16.52226562 1.90234375 17.578125 C1.89448853 18.99206543 1.89448853 18.99206543 1.88647461 20.43457031 C1.90703383 22.95672878 1.90703383 22.95672878 2.56860352 25.15136719 C3 27 3 27 2 30 C1.98088296 31.45835684 2.00529986 32.91763996 2.0625 34.375 C2.1163223 38.04089679 1.71067382 40.68556948 0 44 C-0.80225837 41.19711611 -1.10461725 38.78433888 -1.02172852 35.87402344 C-1.00163223 35.07349548 -0.98153595 34.27296753 -0.96083069 33.44818115 C-0.93379562 32.59387512 -0.90676056 31.73956909 -0.87890625 30.859375 C-0.85529526 29.97719299 -0.83168427 29.09501099 -0.80735779 28.18609619 C-0.73090504 25.37389292 -0.64680169 22.56197786 -0.5625 19.75 C-0.5092609 17.84115984 -0.45652063 15.9323057 -0.40429688 14.0234375 C-0.27531479 9.3487765 -0.13947175 4.67435932 0 0 Z " fill="#7350D0" transform="translate(239,170)"/>
<path d="M0 0 C2.31 0 4.62 0 7 0 C6.74438677 2.3431213 6.40729228 4.67843403 6 7 C5.01 7.495 5.01 7.495 4 8 C3.34 7.34 2.68 6.68 2 6 C2.99 5.34 3.98 4.68 5 4 C5 3.34 5 2.68 5 2 C4.24074219 2.49371094 3.48148437 2.98742187 2.69921875 3.49609375 C1.70535156 4.13675781 0.71148437 4.77742187 -0.3125 5.4375 C-1.29863281 6.07558594 -2.28476562 6.71367187 -3.30078125 7.37109375 C-6 9 -6 9 -9 10 C-9 5.72290301 -8.29379749 4.44069624 -6 1 C-3.03 1.495 -3.03 1.495 0 2 C0 1.34 0 0.68 0 0 Z " fill="#7561D4" transform="translate(262,183)"/>
<path d="M0 0 C1.65 0 3.3 0 5 0 C5 0.66 5 1.32 5 2 C5.763125 2.061875 6.52625 2.12375 7.3125 2.1875 C10 3 10 3 11.8125 5.4375 C13 8 13 8 13 10 C12.34 10 11.68 10 11 10 C10.67 10.66 10.34 11.32 10 12 C10 11.34 10 10.68 10 10 C9.01 10 8.02 10 7 10 C7.66 8.02 8.32 6.04 9 4 C8.01 4 7.02 4 6 4 C5.87625 4.721875 5.7525 5.44375 5.625 6.1875 C5.0095069 8.95721894 4.11555626 11.3970354 3 14 C1.9375 12.1875 1.9375 12.1875 1 10 C1.33 9.01 1.66 8.02 2 7 C1.39421747 4.98072489 0.73080266 2.97746603 0 1 C0 0.67 0 0.34 0 0 Z " fill="#7782E2" transform="translate(280,176)"/>
<path d="M0 0 C0.33 0 0.66 0 1 0 C1.22786458 1.98567708 1.45572917 3.97135417 1.68359375 5.95703125 C1.97170735 8.19396393 1.97170735 8.19396393 3 11 C3.0433573 12.52021517 3.04007394 14.04219473 3 15.5625 C2.87044355 18.91281982 2.87044355 18.91281982 4 22 C5.65 22 7.3 22 9 22 C9.33 21.34 9.66 20.68 10 20 C11.32 20.33 12.64 20.66 14 21 C14 21.66 14 22.32 14 23 C14.66 23 15.32 23 16 23 C16 23.66 16 24.32 16 25 C13.52039864 24.85975781 11.04147598 24.7130815 8.5625 24.5625 C7.85544922 24.52318359 7.14839844 24.48386719 6.41992188 24.44335938 C1.11328125 24.11328125 1.11328125 24.11328125 0 23 C-0.08713831 21.29227642 -0.10700007 19.58101351 -0.09765625 17.87109375 C-0.09443359 16.83662109 -0.09121094 15.80214844 -0.08789062 14.73632812 C-0.07951172 13.64771484 -0.07113281 12.55910156 -0.0625 11.4375 C-0.05798828 10.34501953 -0.05347656 9.25253906 -0.04882812 8.12695312 C-0.03699826 5.41791505 -0.02051543 2.70898401 0 0 Z " fill="#1F9F8E" transform="translate(327,196)"/>
<path d="M0 0 C0.33 0.66 0.66 1.32 1 2 C1.66 1.67 2.32 1.34 3 1 C4.54023996 0.93049459 6.08334988 0.91547643 7.625 0.9375 C8.85089844 0.95103516 8.85089844 0.95103516 10.1015625 0.96484375 C11.04128906 0.98224609 11.04128906 0.98224609 12 1 C12 2.98 12 4.96 12 7 C7.71 7 3.42 7 -1 7 C-1.33 5.35 -1.66 3.7 -2 2 C-1.34 2 -0.68 2 0 2 C0 1.34 0 0.68 0 0 Z " fill="#FBAA14" transform="translate(335,147)"/>
<path d="M0 0 C8.91 0 17.82 0 27 0 C27.33 0.66 27.66 1.32 28 2 C30.01669827 3.13350534 30.01669827 3.13350534 32 4 C32 4.33 32 4.66 32 5 C29.69 5 27.38 5 25 5 C24.67 4.01 24.34 3.02 24 2 C23.01 2.33 22.02 2.66 21 3 C19.37066846 3.01560763 17.74026903 2.96765104 16.11328125 2.87890625 C15.17548828 2.83056641 14.23769531 2.78222656 13.27148438 2.73242188 C11.80678711 2.64831055 11.80678711 2.64831055 10.3125 2.5625 C9.32443359 2.51029297 8.33636719 2.45808594 7.31835938 2.40429688 C4.87858324 2.27464694 2.43921895 2.13968258 0 2 C0 1.34 0 0.68 0 0 Z " fill="#5A85D8" transform="translate(288,163)"/>
<path d="M0 0 C0.66 0 1.32 0 2 0 C1.67 1.65 1.34 3.3 1 5 C1.70125 5.2475 2.4025 5.495 3.125 5.75 C6.41286474 7.17950641 9.15545943 8.81698049 12 11 C12 11.99 12 12.98 12 14 C9.1875 16.25 9.1875 16.25 6 18 C5.01 17.67 4.02 17.34 3 17 C3 16.01 3 15.02 3 14 C3.99 14 4.98 14 6 14 C5.67 13.01 5.34 12.02 5 11 C5.33 10.67 5.66 10.34 6 10 C2.535 8.02 2.535 8.02 -1 6 C-0.67 4.02 -0.34 2.04 0 0 Z " fill="#7990D7" transform="translate(294,183)"/>
<path d="M0 0 C1.77371527 2.85765239 1.94736324 5.49661375 2.125 8.8125 C1.135 10.2975 1.135 10.2975 0.125 11.8125 C0.09921875 11.18601563 0.0734375 10.55953125 0.046875 9.9140625 C-0.00984375 9.09679687 -0.0665625 8.27953125 -0.125 7.4375 C-0.17140625 6.62539062 -0.2178125 5.81328125 -0.265625 4.9765625 C-0.6672092 2.62411073 -0.6672092 2.62411073 -2.921875 1.5234375 C-3.56640625 1.28882813 -4.2109375 1.05421875 -4.875 0.8125 C-4.875 0.1525 -4.875 -0.5075 -4.875 -1.1875 C-5.41769531 -0.98253906 -5.96039063 -0.77757812 -6.51953125 -0.56640625 C-7.23496094 -0.29699219 -7.95039063 -0.02757812 -8.6875 0.25 C-9.74904297 0.65025391 -9.74904297 0.65025391 -10.83203125 1.05859375 C-12.50172396 1.67475186 -14.18657704 2.24969235 -15.875 2.8125 C-15.545 6.4425 -15.215 10.0725 -14.875 13.8125 C-18.0400162 9.5924784 -18.48455448 8.79052824 -17.875 3.8125 C-16.45528457 0.3420845 -15.46171358 -0.88080881 -12.125 -2.625 C-7.49694251 -3.42600995 -3.96667629 -2.51222832 0 0 Z " fill="#F2CF72" transform="translate(348.875,142.1875)"/>
<path d="M0 0 C9.46 3.01 9.46 3.01 11.125 6.0625 C11.41375 6.701875 11.7025 7.34125 12 8 C12.66 8.33 13.32 8.66 14 9 C14.33 7.68 14.66 6.36 15 5 C15.33 5 15.66 5 16 5 C16 7.64 16 10.28 16 13 C16.66 12.34 17.32 11.68 18 11 C18 12.65 18 14.3 18 16 C16.68 15.34 15.36 14.68 14 14 C14 13.34 14 12.68 14 12 C13.4225 11.731875 12.845 11.46375 12.25 11.1875 C9.94449957 9.97070811 7.97943808 8.69666121 6 7 C6 6.34 6 5.68 6 5 C5.38125 4.731875 4.7625 4.46375 4.125 4.1875 C2 3 2 3 0 0 Z " fill="#40B39F" transform="translate(339,220)"/>
<path d="M0 0 C0.66 0 1.32 0 2 0 C2.33 1.65 2.66 3.3 3 5 C3.598125 5.103125 4.19625 5.20625 4.8125 5.3125 C7.46039822 6.14469658 8.50490966 6.63933104 10 9 C9.6875 12.6875 9.6875 12.6875 9 16 C8.01 16 7.02 16 6 16 C6.66 14.35 7.32 12.7 8 11 C7.42765625 10.89816406 6.8553125 10.79632813 6.265625 10.69140625 C3.59724354 9.87708984 1.94034312 8.65326878 -0.25 6.9375 C-0.95640625 6.38964844 -1.6628125 5.84179688 -2.390625 5.27734375 C-2.92171875 4.85582031 -3.4528125 4.43429688 -4 4 C-2.68 3.67 -1.36 3.34 0 3 C0 2.01 0 1.02 0 0 Z " fill="#5F81D2" transform="translate(302,182)"/>
<path d="M0 0 C0.66 0 1.32 0 2 0 C6 5.29411765 6 5.29411765 6 9 C5.01 9.33 4.02 9.66 3 10 C2.67 10.66 2.34 11.32 2 12 C1.34 12 0.68 12 0 12 C0 11.34 0 10.68 0 10 C-1.32 9.67 -2.64 9.34 -4 9 C-4 8.01 -4 7.02 -4 6 C-3.34 6 -2.68 6 -2 6 C-1.34 4.02 -0.68 2.04 0 0 Z " fill="#59BBB6" transform="translate(317,143)"/>
<path d="M0 0 C0.66 0 1.32 0 2 0 C3.52491998 3.04983996 3.23562548 5.6423369 3 9 C1.5 10.9375 1.5 10.9375 0 12 C-0.33 11.01 -0.66 10.02 -1 9 C-2.32 9.33 -3.64 9.66 -5 10 C-5 7.69 -5 5.38 -5 3 C-4.360625 2.87625 -3.72125 2.7525 -3.0625 2.625 C-2.0415625 2.315625 -2.0415625 2.315625 -1 2 C-0.67 1.34 -0.34 0.68 0 0 Z " fill="#5456C2" transform="translate(272,199)"/>
<path d="M0 0 C0.99 0 1.98 0 3 0 C3.33 0.66 3.66 1.32 4 2 C5.0725 1.95875 6.145 1.9175 7.25 1.875 C11 2 11 2 15 4 C11.37 4 7.74 4 4 4 C4.04125 5.753125 4.0825 7.50625 4.125 9.3125 C4.25 14.625 4.25 14.625 2 18 C0.44498008 14.88996016 1.08877255 11.7330731 1.2578125 8.3125 C1.17273438 7.549375 1.08765625 6.78625 1 6 C0.01 5.34 -0.98 4.68 -2 4 C-1.34 2.68 -0.68 1.36 0 0 Z " fill="#179E83" transform="translate(353,216)"/>
<path d="M0 0 C5.28 0 10.56 0 16 0 C16.33 4.95 16.66 9.9 17 15 C18.65 14.01 20.3 13.02 22 12 C22.99 12 23.98 12 25 12 C25 12.66 25 13.32 25 14 C24.34 14 23.68 14 23 14 C22.67 15.32 22.34 16.64 22 18 C19.69 18 17.38 18 15 18 C15 12.39 15 6.78 15 1 C10.05 1 5.1 1 0 1 C0 0.67 0 0.34 0 0 Z " fill="#ADB2E0" transform="translate(247,230)"/>
<path d="M0 0 C4.55555556 0.55555556 4.55555556 0.55555556 6 2 C6.04063832 3.66617115 6.042721 5.33388095 6 7 C3.6875 8.125 3.6875 8.125 1 9 C0.01 8.34 -0.98 7.68 -2 7 C-2.3125 4.5 -2.3125 4.5 -2 2 C-1.34 1.34 -0.68 0.68 0 0 Z " fill="#E9BA76" transform="translate(269,143)"/>
<path d="M0 0 C1.68883032 0.72851504 3.37597701 1.46171526 5.046875 2.23046875 C7.96022114 3.37832713 10.90204561 3.6838822 14 4 C14 4.33 14 4.66 14 5 C13.31292969 5.06058594 12.62585938 5.12117187 11.91796875 5.18359375 C10.56638672 5.30927734 10.56638672 5.30927734 9.1875 5.4375 C7.84751953 5.55931641 7.84751953 5.55931641 6.48046875 5.68359375 C3.87256441 5.93489767 3.87256441 5.93489767 1 7 C0.67 7.66 0.34 8.32 0 9 C-0.33 8.01 -0.66 7.02 -1 6 C-1.66 5.67 -2.32 5.34 -3 5 C-2.625 3.0625 -2.625 3.0625 -2 1 C-1.34 0.67 -0.68 0.34 0 0 Z " fill="#5ECEA4" transform="translate(331,158)"/>
<path d="M0 0 C0.33 0.66 0.66 1.32 1 2 C2.97888961 2.72693904 4.97954558 3.39816251 7 4 C7 4.99 7 5.98 7 7 C6.236875 7.226875 5.47375 7.45375 4.6875 7.6875 C1.45263699 9.26731682 0.58358642 10.83282717 -1 14 C-2.32 12.35 -3.64 10.7 -5 9 C-4.01 9 -3.02 9 -2 9 C-0.55802132 6.11604263 -0.41166419 3.17569521 0 0 Z " fill="#AC86D4" transform="translate(295,131)"/>
<path d="M0 0 C4.875 4.75 4.875 4.75 6 7 C5.34 7 4.68 7 4 7 C3.92572162 10.34252724 3.93453047 12.8035914 5 16 C3.68 16.33 2.36 16.66 1 17 C-0.81502739 13.26317891 -1.33059914 10.99179743 0 7 C0.66 6.67 1.32 6.34 2 6 C1.34 5.01 0.68 4.02 0 3 C0 2.01 0 1.02 0 0 Z " fill="#674DD1" transform="translate(249,184)"/>
<path d="M0 0 C1.2065625 0.0309375 1.2065625 0.0309375 2.4375 0.0625 C4.11416168 3.41582335 2.97232999 7.07314875 2.5 10.6875 C2.40009766 11.48929688 2.30019531 12.29109375 2.19726562 13.1171875 C1.9494582 15.09964691 1.69418193 17.08117009 1.4375 19.0625 C1.1075 19.0625 0.7775 19.0625 0.4375 19.0625 C0.40011719 18.4334375 0.36273438 17.804375 0.32421875 17.15625 C-0.12927121 11.25198851 -1.24226914 6.50999854 -3.5625 1.0625 C-2.5625 0.0625 -2.5625 0.0625 0 0 Z " fill="#6DDBBD" transform="translate(325.5625,160.9375)"/>
<path d="M0 0 C1.32 0.33 2.64 0.66 4 1 C4 1.66 4 2.32 4 3 C4.99 3.33 5.98 3.66 7 4 C5.68 5.65 4.36 7.3 3 9 C1.68 8.34 0.36 7.68 -1 7 C-1 6.34 -1 5.68 -1 5 C-1.99 4.67 -2.98 4.34 -4 4 C-3.01 3.67 -2.02 3.34 -1 3 C-0.67 2.01 -0.34 1.02 0 0 Z " fill="#77D5B6" transform="translate(330,231)"/>
<path d="M0 0 C3.44361636 0.19677808 5.03644088 1.02753311 7.8125 3.125 C11.78066673 8.13481049 10.34593527 15.95766389 10 22 C9.67 22 9.34 22 9 22 C8.96261719 21.08476562 8.92523438 20.16953125 8.88671875 19.2265625 C8.82097656 18.03804687 8.75523437 16.84953125 8.6875 15.625 C8.60048828 13.84996094 8.60048828 13.84996094 8.51171875 12.0390625 C8.34285156 11.03617188 8.17398437 10.03328125 8 9 C7.01 8.34 6.02 7.68 5 7 C4.67 6.01 4.34 5.02 4 4 C1.99983534 2.79117904 1.99983534 2.79117904 0 2 C0 1.34 0 0.68 0 0 Z " fill="#8AB2E4" transform="translate(315,163)"/>
<path d="M0 0 C1.75710133 3.51420266 3 6.10418447 3 10 C3.99 10 4.98 10 6 10 C4.48601545 13.78496138 3.9855604 14.0072198 0 16 C0 10.72 0 5.44 0 0 Z " fill="#3237A6" transform="translate(263,230)"/>
<path d="M0 0 C1.08667969 0.01804688 2.17335937 0.03609375 3.29296875 0.0546875 C4.54013672 0.08949219 4.54013672 0.08949219 5.8125 0.125 C2.78078047 1.71793738 0.16624706 2.45425059 -3.1875 3.125 C-6.36202084 4.38297836 -6.36202084 4.38297836 -8.1875 7.125 C-9.1775 7.125 -10.1675 7.125 -11.1875 7.125 C-9.0250019 0.8038517 -6.49720881 -0.13972492 0 0 Z " fill="#7C56DA" transform="translate(250.1875,162.875)"/>
<path d="M0 0 C0.33 0.99 0.66 1.98 1 3 C0.01 4.485 0.01 4.485 -1 6 C-1.66 6 -2.32 6 -3 6 C-3.33 6.66 -3.66 7.32 -4 8 C-4.433125 7.21625 -4.86625 6.4325 -5.3125 5.625 C-6.89220247 2.78301625 -6.89220247 2.78301625 -10 1 C-6.61981469 -0.04005702 -3.5219721 -0.08004482 0 0 Z " fill="#5675DE" transform="translate(296,176)"/>
<path d="M0 0 C0.33 0.66 0.66 1.32 1 2 C3.3140622 2.73075648 5.64828869 3.40138258 8 4 C8 3.34 8 2.68 8 2 C9.32 2.33 10.64 2.66 12 3 C9.64046906 5.35953094 8.22104383 5.49141413 5 6 C4.67 6.99 4.34 7.98 4 9 C-0.875 5.375 -0.875 5.375 -2 2 C-1.34 2 -0.68 2 0 2 C0 1.34 0 0.68 0 0 Z " fill="#83D9C6" transform="translate(318,156)"/>
<path d="M0 0 C1.4323356 2.8646712 0.57861549 4.91405073 0 8 C0 8.66 0 9.32 0 10 C-1.32 9.67 -2.64 9.34 -4 9 C-4 8.34 -4 7.68 -4 7 C-4.99 6.67 -5.98 6.34 -7 6 C-2.25 1.125 -2.25 1.125 0 0 Z " fill="#7D71CC" transform="translate(263,190)"/>
<path d="M0 0 C1.65 0.33 3.3 0.66 5 1 C5.33 1.99 5.66 2.98 6 4 C7.98 4 9.96 4 12 4 C12 4.33 12 4.66 12 5 C7.38 5 2.76 5 -2 5 C-1.34 3.35 -0.68 1.7 0 0 Z " fill="#2A54C4" transform="translate(282,224)"/>
<path d="M0 0 C1.32 0.33 2.64 0.66 4 1 C3.01 1.33 2.02 1.66 1 2 C1.33 2.99 1.66 3.98 2 5 C2.66 5 3.32 5 4 5 C4 4.34 4 3.68 4 3 C4.99 3 5.98 3 7 3 C7.33 3.99 7.66 4.98 8 6 C4.91190305 7.76462683 3.76687864 8 0 8 C0 5.36 0 2.72 0 0 Z " fill="#7A96D5" transform="translate(294,201)"/>
<path d="M0 0 C1.98 0.66 3.96 1.32 6 2 C6.33 3.65 6.66 5.3 7 7 C6.01 7.495 6.01 7.495 5 8 C5 7.34 5 6.68 5 6 C3.02 6.33 1.04 6.66 -1 7 C-1.125 2.25 -1.125 2.25 0 0 Z " fill="#675DE0" transform="translate(265,176)"/>
<path d="M0 0 C0.33 0 0.66 0 1 0 C1 4.95 1 9.9 1 15 C0.34 15 -0.32 15 -1 15 C-2.50913724 10.47258828 -2.77429281 5.93573202 -1 1.5 C-0.67 1.005 -0.34 0.51 0 0 Z M-1 10 C0 12 0 12 0 12 Z " fill="#4381DE" transform="translate(322,171)"/>
<path d="M0 0 C0.99 0 1.98 0 3 0 C3.3125 2.8125 3.3125 2.8125 3 6 C0.1769966 8.49088536 -1.55297679 8.9746968 -5.3125 9.1875 C-6.6428125 9.0946875 -6.6428125 9.0946875 -8 9 C-5 7 -5 7 -1 7 C-0.67 4.69 -0.34 2.38 0 0 Z " fill="#ECAF51" transform="translate(346,150)"/>
<path d="M0 0 C0.33 0 0.66 0 1 0 C1 2.64 1 5.28 1 8 C1.66 7.34 2.32 6.68 3 6 C3 7.65 3 9.3 3 11 C1.68 10.34 0.36 9.68 -1 9 C-1 8.34 -1 7.68 -1 7 C-1.99 6.67 -2.98 6.34 -4 6 C-4 5.34 -4 4.68 -4 4 C-3.01 4 -2.02 4 -1 4 C-0.67 2.68 -0.34 1.36 0 0 Z " fill="#3AAE98" transform="translate(354,225)"/>
<path d="M0 0 C0.33 0.66 0.66 1.32 1 2 C3.31 2 5.62 2 8 2 C8 2.99 8 3.98 8 5 C4.01803543 6.05404945 1.01804691 5.84098656 -3 5 C-2.01 4.67 -1.02 4.34 0 4 C0 2.68 0 1.36 0 0 Z " fill="#2F71C8" transform="translate(312,224)"/>
<path d="M0 0 C0.33 0 0.66 0 1 0 C1 2.97 1 5.94 1 9 C-1.31 8.67 -3.62 8.34 -6 8 C-6 7.01 -6 6.02 -6 5 C-5.195625 4.731875 -4.39125 4.46375 -3.5625 4.1875 C-2.716875 3.795625 -1.87125 3.40375 -1 3 C-0.67 2.01 -0.34 1.02 0 0 Z " fill="#395CC7" transform="translate(293,200)"/>
<path d="M0 0 C3.51121797 0.2926015 4.80482666 0.8099628 7.375 3.3125 C9 6 9 6 8.75 8.3125 C8.5025 8.869375 8.255 9.42625 8 10 C5.7522025 7.94766315 4.9977758 6.99332739 4 4 C1.99983534 2.79117904 1.99983534 2.79117904 0 2 C0 1.34 0 0.68 0 0 Z " fill="#7DDABB" transform="translate(367,160)"/>
<path d="M0 0 C1.32 0 2.64 0 4 0 C2.75023244 3.65316671 2.32901247 4.78065836 -1 7 C-2.35432675 5.68799596 -3.68733482 4.35368596 -5 3 C-5 2.67 -5 2.34 -5 2 C-3.35 2 -1.7 2 0 2 C0 1.34 0 0.68 0 0 Z " fill="#3D52C4" transform="translate(277,210)"/>
<path d="M0 0 C1.8125 0.1875 1.8125 0.1875 4 1 C7 5.17857143 7 5.17857143 7 8 C6.34 8 5.68 8 5 8 C4.67 8.66 4.34 9.32 4 10 C4 9.34 4 8.68 4 8 C3.01 8 2.02 8 1 8 C1.66 6.02 2.32 4.04 3 2 C2.01 2 1.02 2 0 2 C0 1.34 0 0.68 0 0 Z " fill="#6D7DDB" transform="translate(286,178)"/>
<path d="M0 0 C0.99 0.33 1.98 0.66 3 1 C3.8125 2.9375 3.8125 2.9375 4 5 C3.34 5.66 2.68 6.32 2 7 C-0.125 6.625 -0.125 6.625 -2 6 C-1.125 1.125 -1.125 1.125 0 0 Z " fill="#859ACC" transform="translate(282,150)"/>
<path d="M0 0 C1.98 0 3.96 0 6 0 C6 0.66 6 1.32 6 2 C6.66 2.33 7.32 2.66 8 3 C7.01 4.485 7.01 4.485 6 6 C3.5625 5.25 3.5625 5.25 1 4 C0.1875 1.875 0.1875 1.875 0 0 Z " fill="#5B47BA" transform="translate(241,224)"/>
<path d="M0 0 C3.24732932 1.62366466 3.70155136 4.75387839 5 8 C3.35 8 1.7 8 0 8 C-0.38063221 5.6739143 -0.71269945 3.33944736 -1 1 C-0.67 0.67 -0.34 0.34 0 0 Z " fill="#90E0D2" transform="translate(320,152)"/>
<path d="M0 0 C0.99 0 1.98 0 3 0 C3 0.66 3 1.32 3 2 C4.32 2.66 5.64 3.32 7 4 C6.34 5.32 5.68 6.64 5 8 C4.67 6.68 4.34 5.36 4 4 C1.69 3.67 -0.62 3.34 -3 3 C-2.01 2.67 -1.02 2.34 0 2 C0 1.34 0 0.68 0 0 Z " fill="#3AC999" transform="translate(360,176)"/>
<path d="M0 0 C0.99 0.33 1.98 0.66 3 1 C3.33 1.99 3.66 2.98 4 4 C3.67 4.66 3.34 5.32 3 6 C0.5625 5.625 0.5625 5.625 -2 5 C-2.33 4.34 -2.66 3.68 -3 3 C-2.01 2.01 -1.02 1.02 0 0 Z " fill="#EAB37E" transform="translate(309,131)"/>
<path d="M0 0 C2.64 0.33 5.28 0.66 8 1 C7.67 1.99 7.34 2.98 7 4 C5.125 4.8125 5.125 4.8125 3 5 C2.01 4.34 1.02 3.68 0 3 C0 2.01 0 1.02 0 0 Z " fill="#3872CE" transform="translate(301,203)"/>
<path d="M0 0 C1.45606519 4.52092968 0.27032841 7.51648796 -1 12 C-1.99 12 -2.98 12 -4 12 C-3.45660208 7.43545749 -2.20536179 4.0271824 0 0 Z " fill="#7F88D1" transform="translate(282,196)"/>
<path d="M0 0 C2.24469451 0.91190715 3.42203265 1.99783754 5 3.8125 C4.01 4.3075 4.01 4.3075 3 4.8125 C3 4.1525 3 3.4925 3 2.8125 C0.69 3.1425 -1.62 3.4725 -4 3.8125 C-4.33 3.1525 -4.66 2.4925 -5 1.8125 C-2 -0.1875 -2 -0.1875 0 0 Z " fill="#6B5CCC" transform="translate(257,200.1875)"/>
<path d="M0 0 C3 1 3 1 4.1875 2.75 C5.10819096 5.29960574 5.14948718 7.30923081 5 10 C4.34 9.67 3.68 9.34 3 9 C2.34 9.66 1.68 10.32 1 11 C1.33 8.03 1.66 5.06 2 2 C1.01 1.67 0.02 1.34 -1 1 C-0.67 0.67 -0.34 0.34 0 0 Z " fill="#5F56CF" transform="translate(267,181)"/>
<path d="M0 0 C0.66 0 1.32 0 2 0 C2.17835515 4.54805635 1.99785435 7.8794254 0 12 C-1.21724428 8.04395608 -1.89679663 3.79359325 0 0 Z " fill="#972DD6" transform="translate(239,202)"/>
<path d="M0 0 C1.65 0 3.3 0 5 0 C4.74438677 2.3431213 4.40729228 4.67843403 4 7 C3.01 7.495 3.01 7.495 2 8 C1.34 7.34 0.68 6.68 0 6 C0.99 5.34 1.98 4.68 3 4 C3 3.34 3 2.68 3 2 C1.68 2.33 0.36 2.66 -1 3 C-0.67 2.01 -0.34 1.02 0 0 Z " fill="#9A92DC" transform="translate(264,183)"/>
<path d="M0 0 C0.66 0 1.32 0 2 0 C4 3 4 3 3.75 5.0625 C3 7 3 7 1 9 C0.67 6.03 0.34 3.06 0 0 Z " fill="#43D29C" transform="translate(328,164)"/>
<path d="M0 0 C0.99 0.33 1.98 0.66 3 1 C3 2.65 3 4.3 3 6 C1.35 5.67 -0.3 5.34 -2 5 C-1.34 3.35 -0.68 1.7 0 0 Z " fill="#F79C21" transform="translate(270,144)"/>
<path d="M0 0 C2.97 0.495 2.97 0.495 6 1 C6 1.66 6 2.32 6 3 C6.66 3.33 7.32 3.66 8 4 C8 4.66 8 5.32 8 6 C5.33333333 4.66666667 2.66666667 3.33333333 0 2 C0 1.34 0 0.68 0 0 Z " fill="#3C3CBB" transform="translate(258,225)"/>
<path d="M0 0 C0.99 0 1.98 0 3 0 C1.75237172 3.84685385 0.6129609 6.02929405 -3 8 C-3.99 7.67 -4.98 7.34 -6 7 C-4.68 6.67 -3.36 6.34 -2 6 C-2 5.34 -2 4.68 -2 4 C-1.34 4 -0.68 4 0 4 C0 2.68 0 1.36 0 0 Z " fill="#51B3A4" transform="translate(373,212)"/>
<path d="M0 0 C0.99 0.33 1.98 0.66 3 1 C3 2.32 3 3.64 3 5 C0.69 4.67 -1.62 4.34 -4 4 C-2.68 2.68 -1.36 1.36 0 0 Z " fill="#6890D8" transform="translate(306,199)"/>
<path d="M0 0 C1.32 0.33 2.64 0.66 4 1 C3.01 3.97 2.02 6.94 1 10 C0.67 10 0.34 10 0 10 C0 6.7 0 3.4 0 0 Z " fill="#24B39D" transform="translate(328,196)"/>
<path d="M0 0 C0.33 0.66 0.66 1.32 1 2 C1.99 2 2.98 2 4 2 C3.1875 3.9375 3.1875 3.9375 2 6 C1.01 6.33 0.02 6.66 -1 7 C-0.67 4.69 -0.34 2.38 0 0 Z " fill="#3441AD" transform="translate(265,238)"/>
<path d="M0 0 C0 0.66 0 1.32 0 2 C-1.95927063 3.7143618 -3.95880212 5.38405168 -6 7 C-6.33 5.68 -6.66 4.36 -7 3 C-2.25 0 -2.25 0 0 0 Z " fill="#6070BE" transform="translate(282,230)"/>
<path d="M0 0 C0.66 0.66 1.32 1.32 2 2 C1.625 5.625 1.625 5.625 1 9 C0.01 9 -0.98 9 -2 9 C-1.34 7.35 -0.68 5.7 0 4 C-1.32 3.67 -2.64 3.34 -4 3 C-2.68 2.01 -1.36 1.02 0 0 Z " fill="#88AAE6" transform="translate(310,189)"/>
<path d="M0 0 C0.66 0.33 1.32 0.66 2 1 C0.1875 4 0.1875 4 -2 7 C-2.99 7 -3.98 7 -5 7 C-3.75023244 3.34683329 -3.32901247 2.21934164 0 0 Z " fill="#A584DF" transform="translate(244,163)"/>
<path d="M0 0 C2.21773977 1.10886989 3.47698387 2.0418364 5 4 C4.6875 6.1875 4.6875 6.1875 4 8 C3.01 7.67 2.02 7.34 1 7 C0.67 4.69 0.34 2.38 0 0 Z " fill="#88DDD3" transform="translate(311,149)"/>
<path d="M0 0 C2.625 0.375 2.625 0.375 5 1 C3.68 2.32 2.36 3.64 1 5 C0.67 4.34 0.34 3.68 0 3 C-0.66 2.67 -1.32 2.34 -2 2 C-1.34 1.34 -0.68 0.68 0 0 Z " fill="#5D6AC2" transform="translate(270,236)"/>
<path d="M0 0 C0.66 0 1.32 0 2 0 C2 2.31 2 4.62 2 7 C1.01 7.33 0.02 7.66 -1 8 C-1.04241723 5.66705225 -1.04092937 3.33297433 -1 1 C-0.67 0.67 -0.34 0.34 0 0 Z " fill="#6465BE" transform="translate(268,201)"/>
<path d="M0 0 C2 1 2 1 2.6875 2.75 C3.05449975 5.39239823 2.64331769 7.42672922 2 10 C1.01 9.67 0.02 9.34 -1 9 C-0.67 6.03 -0.34 3.06 0 0 Z " fill="#6F44CB" transform="translate(239,192)"/>
<path d="M0 0 C0.99 0 1.98 0 3 0 C2.01 2.97 1.02 5.94 0 9 C-0.66 8.01 -1.32 7.02 -2 6 C-1.33333333 4 -0.66666667 2 0 0 Z " fill="#888DD5" transform="translate(279,190)"/>
<path d="M0 0 C0.66 0 1.32 0 2 0 C2 1.98 2 3.96 2 6 C0.68 6 -0.64 6 -2 6 C-1.34 4.02 -0.68 2.04 0 0 Z " fill="#9675C6" transform="translate(293,127)"/>
<path d="M0 0 C1.32 0.33 2.64 0.66 4 1 C4 1.66 4 2.32 4 3 C5.32 3 6.64 3 8 3 C7.67 3.99 7.34 4.98 7 6 C5.68 5.34 4.36 4.68 3 4 C3 3.34 3 2.68 3 2 C2.01 1.67 1.02 1.34 0 1 C0 0.67 0 0.34 0 0 Z " fill="#A3DFCF" transform="translate(326,234)"/>
<path d="M0 0 C1.98 0.99 3.96 1.98 6 3 C6 3.99 6 4.98 6 6 C4.125 5.8125 4.125 5.8125 2 5 C0.75 2.4375 0.75 2.4375 0 0 Z " fill="#4FD5A1" transform="translate(366,161)"/>
<path d="M0 0 C1.65 0 3.3 0 5 0 C5.33 0.99 5.66 1.98 6 3 C2.25 4.125 2.25 4.125 0 3 C0 2.01 0 1.02 0 0 Z " fill="#EDA03D" transform="translate(334,154)"/>
<path d="M0 0 C0.66 0 1.32 0 2 0 C2 1.65 2 3.3 2 5 C0.02 5.99 0.02 5.99 -2 7 C-2.33 6.34 -2.66 5.68 -3 5 C-2.34 4.67 -1.68 4.34 -1 4 C-0.34786708 1.97536745 -0.34786708 1.97536745 0 0 Z " fill="#4377CD" transform="translate(311,194)"/>
<path d="M0 0 C2.97 0.495 2.97 0.495 6 1 C4.515 2.485 4.515 2.485 3 4 C2.01 3.67 1.02 3.34 0 3 C0 2.01 0 1.02 0 0 Z " fill="#6F89D6" transform="translate(297,197)"/>
<path d="M0 0 C1.32 0.66 2.64 1.32 4 2 C3.34 3.65 2.68 5.3 2 7 C0 4 0 4 -1 1 C-0.67 0.67 -0.34 0.34 0 0 Z " fill="#686CD3" transform="translate(274,197)"/>
<path d="M0 0 C2.02045442 0.60183749 4.02111039 1.27306096 6 2 C6.33 2.66 6.66 3.32 7 4 C4.69 4 2.38 4 0 4 C0 2.68 0 1.36 0 0 Z " fill="#5189E5" transform="translate(313,164)"/>
<path d="M0 0 C0.33 1.98 0.66 3.96 1 6 C0.34 6 -0.32 6 -1 6 C-2.625 3.5 -2.625 3.5 -4 1 C-2 0 -2 0 0 0 Z " fill="#2DB4AB" transform="translate(318,149)"/>
<path d="M0 0 C1.98 0.495 1.98 0.495 4 1 C3.67 1.99 3.34 2.98 3 4 C1.68 3.67 0.36 3.34 -1 3 C-0.67 2.01 -0.34 1.02 0 0 Z " fill="#AFDAD2" transform="translate(330,225)"/>
<path d="M0 0 C0.66 0.33 1.32 0.66 2 1 C2 1.66 2 2.32 2 3 C1.01 3 0.02 3 -1 3 C-0.67 2.01 -0.34 1.02 0 0 Z " fill="#97D5B6" transform="translate(340,229)"/>
<path d="M0 0 C0.66 0 1.32 0 2 0 C1.67 0.99 1.34 1.98 1 3 C0.67 2.01 0.34 1.02 0 0 Z " fill="#CCCCCC" transform="translate(358,152)"/>
<path d="M0 0 C0.99 0 1.98 0 3 0 C3 0.66 3 1.32 3 2 C2.01 1.67 1.02 1.34 0 1 C0 0.67 0 0.34 0 0 Z " fill="#918789" transform="translate(257,153)"/>
</svg>
